<svg width="1557" height="782" viewBox="0 0 1557 782" fill="none" xmlns="http://www.w3.org/2000/svg">
<path d="M191.694 469.667C221.334 450.408 234.293 410.637 241.882 378.204C248.612 352.502 252.012 339.65 258.742 313.948C268.873 277.434 290.638 200.47 246.536 175.77C220.475 166.247 207.445 161.486 181.349 152C120.923 361.988 60.4615 571.976 0 782C33.9358 776.988 50.9394 774.518 84.911 769.578C140.075 757.729 162.448 686.17 174.082 639.347C183.21 604.552 187.756 587.154 196.885 552.359C208.841 506.825 207.338 482.017 191.694 469.703V469.667ZM197.994 288.854C200.858 289.534 202.29 289.892 205.154 290.572C207.946 291.252 208.268 294.975 206.156 302.636C196.777 336.715 187.434 370.83 178.055 404.909C176.194 411.747 173.939 414.968 170.968 414.61C167.925 414.217 166.421 414.038 163.379 413.644C174.905 372.047 186.432 330.45 197.959 288.854H197.994ZM113.155 642.712C111.294 649.549 108.895 653.022 105.602 653.236C102.094 653.451 100.375 653.559 96.8673 653.809L132.629 524.688C135.958 524.795 137.605 524.867 140.934 524.974C144.048 525.081 144.478 528.554 142.616 535.355C132.772 571.153 122.963 606.95 113.155 642.712Z" fill="white"/>
<path d="M318.488 202.045C260.604 388.764 201.753 575.126 142.079 761.273C164.488 758.051 175.728 756.44 198.138 753.219C205.977 725.977 209.915 712.374 217.719 685.203C228.708 684.201 234.185 683.664 245.175 682.662C239.913 709.009 237.3 722.146 232.145 748.35C257.632 744.699 270.376 742.909 295.9 739.258C323.32 567.752 352.459 396.568 383.102 225.599C357.256 216.185 344.333 211.459 318.524 202.045H318.488ZM249.9 574.804C270.126 504.605 290.28 434.37 310.326 364.136C295.649 434.299 281.187 504.498 266.832 574.732C260.067 574.732 256.666 574.768 249.865 574.804H249.9Z" fill="white"/>
<path d="M374.654 337.037C385.787 339.686 391.371 341.011 402.504 343.624C373.473 474.571 344.405 605.554 315.374 736.501C341.327 732.814 354.321 730.988 380.274 727.301C405.404 603.621 430.569 479.941 455.699 356.224C466.832 358.873 472.416 360.198 483.549 362.811C490.78 325.224 494.396 306.43 501.662 268.879C467.44 256.385 433.254 243.892 399.032 231.434L374.654 337.037Z" fill="white"/>
<path d="M487.308 363.741C498.441 366.391 504.025 367.715 515.158 370.328C494.396 485.883 473.597 601.473 452.835 717.027C478.788 713.34 491.782 711.514 517.735 707.827C534.596 599.54 551.492 491.252 568.353 382.965C579.486 385.614 585.07 386.938 596.203 389.551C600.857 356.797 603.183 340.437 607.837 307.683C573.615 295.189 539.428 282.696 505.206 270.238C498.047 307.647 494.467 326.369 487.308 363.777V363.741Z" fill="white"/>
<path d="M664.145 328.195C644.099 320.892 634.075 317.205 613.993 309.902C595.916 440.563 577.802 571.188 559.724 701.849C596.238 696.658 632.715 691.432 669.228 686.17C671.662 657.568 672.88 643.249 675.314 614.646C658.31 615.649 649.79 616.15 632.787 617.116C643.239 520.821 653.692 424.526 664.145 328.231V328.195Z" fill="white"/>
<path d="M745.87 548.958C763.196 549.46 771.823 549.71 789.149 550.211C789.364 525.798 789.471 513.591 789.686 489.212C773.255 487.029 765.057 485.919 748.626 483.735C749.593 460.718 750.094 449.191 751.061 426.137C767.313 429.968 775.439 431.901 791.69 435.731C791.87 411.389 791.941 399.218 792.12 374.911C756.752 361.988 739.033 355.545 703.665 342.622C694.358 456.816 685.015 571.01 675.707 685.204C714.082 679.655 752.421 674.071 790.76 668.451C790.939 644.144 791.01 632.009 791.154 607.702C772.002 608.884 762.408 609.456 743.221 610.602C744.259 585.937 744.796 573.623 745.834 548.958H745.87Z" fill="white"/>
<path d="M924.571 511.408C939.999 502.172 947.409 484.774 943.579 450.767C941.789 434.729 940.858 426.711 939.068 410.674C933.341 359.913 915.836 340.331 886.554 351.894C860.673 362.132 847.714 367.215 821.833 377.453C824.088 474.25 826.307 571.01 828.562 667.807C862.749 673.141 879.788 675.79 913.939 681.088C956.788 691.684 969.353 646.615 962.695 613.717C960.225 591.988 959.008 581.105 956.538 559.376C953.316 530.917 943.722 516.133 924.571 511.408ZM875.349 421.091C878.213 420.339 879.645 419.981 882.509 419.229C885.301 418.513 886.697 420.052 887.019 424.241C888.738 446.614 889.597 457.783 891.315 480.156C891.601 483.879 890.42 485.92 887.449 486.349C884.406 486.779 882.903 486.958 879.896 487.388C878.07 460.897 877.175 447.652 875.385 421.126L875.349 421.091ZM901.66 610.137C901.947 613.86 900.622 615.614 897.365 615.399C893.857 615.149 892.103 615.041 888.594 614.791C886.733 587.37 885.802 573.66 883.905 546.274C887.234 546.167 888.881 546.095 892.21 545.952C895.324 545.845 896.864 547.671 897.15 551.393C898.976 574.877 899.871 586.618 901.66 610.137Z" fill="white"/>
<path d="M1047.18 620.338C1047.96 625.422 1046.85 627.605 1043.56 627.355C1042.09 627.247 1041.38 627.212 1039.91 627.104C1036.62 626.889 1034.83 624.563 1034.11 619.551C1018.93 516.92 1003.72 414.288 988.541 311.693C968.638 319.568 958.65 323.506 938.747 331.345L972.54 617.367C977.229 657.675 996.094 695.764 1039.09 703.532C1050.72 705.358 1056.56 706.252 1068.19 708.078C1117.52 719.748 1117.09 655.313 1109.29 625.851C1089.17 513.197 1069.01 400.542 1048.9 287.887C1028.99 295.763 1019 299.7 999.101 307.54C1015.14 411.818 1031.18 516.096 1047.21 620.374L1047.18 620.338Z" fill="white"/>
<path d="M1194.23 629.037C1195.48 635.051 1194.59 637.593 1191.29 637.378C1189.54 637.271 1188.68 637.199 1186.93 637.092C1183.63 636.877 1181.67 634.156 1180.45 628.25C1162.37 539.365 1144.26 450.479 1126.18 361.63C1124.96 355.724 1125.68 352.752 1128.47 352.036C1129.72 351.714 1130.33 351.535 1131.58 351.213C1134.38 350.461 1136.17 352.788 1137.42 358.802C1144.83 394.528 1152.24 430.254 1159.69 465.98C1181.99 463.331 1193.16 462.006 1215.46 459.393C1206.72 420.732 1198.02 382.07 1189.29 343.373C1184.31 314.771 1166.34 240.527 1122.13 254.631C1113.26 258.175 1108.82 259.965 1099.94 263.545C1060.6 283.162 1066.26 337.216 1072.91 373.3C1088.31 457.711 1103.7 542.121 1119.09 626.496C1126.86 669.596 1145.65 717.958 1193.3 727.588C1204.93 729.378 1210.73 730.308 1222.37 732.098C1275.42 740.654 1264.25 663.475 1255.77 634.837C1245.92 591.199 1236.04 547.526 1226.2 503.889C1203.36 505.464 1191.9 506.288 1169.06 507.863C1177.48 548.278 1185.85 588.694 1194.27 629.109L1194.23 629.037Z" fill="white"/>
<path d="M1288.99 193.025C1268.94 200.936 1258.95 204.874 1238.91 212.785C1252.9 289.785 1266.61 366.821 1280 443.893C1261.64 368.719 1243.24 293.508 1224.87 218.333C1204.97 226.209 1194.98 230.147 1175.08 237.986C1213.2 404.767 1251.33 571.547 1289.45 738.328C1315.4 742.265 1328.4 744.234 1354.39 748.208C1336.56 675.288 1318.73 602.369 1300.91 529.449C1323.82 603.228 1346.87 676.935 1370.03 750.606C1396.91 754.723 1410.37 756.763 1437.29 760.916C1404.32 663.797 1371.57 566.607 1339.1 469.31C1322.89 377.095 1306.17 285.024 1288.95 192.989L1288.99 193.025Z" fill="white"/>
<path d="M1459.67 445.397C1435 420.16 1422.94 408.024 1399.28 384.756C1395.16 380.962 1391.69 374.411 1389.11 365.068C1381.63 337.79 1377.87 324.151 1370.39 296.873C1368.28 289.213 1368.6 285.454 1371.36 284.702C1372.61 284.38 1373.22 284.201 1374.47 283.879C1377.26 283.127 1379.45 286.241 1381.59 294.009C1391.4 329.485 1396.34 347.24 1406.15 382.716C1427.56 379.172 1438.3 377.382 1459.7 373.838C1449 336.644 1443.67 318.065 1432.96 280.872C1422.65 248.869 1402.64 152.538 1350.2 163.098C1342.25 166.284 1338.28 167.859 1330.33 171.045C1286.12 193.383 1308.14 275.18 1318.38 310.154C1326.72 341.942 1330.87 357.801 1339.21 389.589C1347.84 425.315 1360.54 462.58 1386.82 489.392C1410.55 512.947 1422.69 525.225 1447.39 550.677C1451.72 554.902 1455.37 561.811 1457.98 571.261C1466.58 602.262 1470.87 617.762 1479.43 648.727C1481.58 656.495 1481.07 659.824 1477.78 659.573C1476.17 659.466 1475.38 659.395 1473.77 659.287C1470.48 659.037 1468.08 655.528 1465.97 647.868C1455.41 609.385 1450.15 590.126 1439.58 551.644C1416.5 551.966 1404.97 552.145 1381.92 552.467C1391.51 589.088 1396.31 607.417 1405.94 644.037C1416.6 690.073 1440.77 764.424 1495.29 774.698C1506.02 776.416 1511.39 777.24 1522.13 778.958C1583.13 785.115 1546.83 677.043 1540.71 652.7C1531.44 620.483 1522.17 588.301 1512.9 556.083C1502.27 516.849 1487.8 475.682 1459.67 445.325V445.397Z" fill="white"/>
<path d="M759.929 229.353C759.04 245.5 773.96 261.032 795.132 265.094C817.919 269.466 839.32 258.895 842.933 241.483C843.919 236.728 843.477 231.954 841.848 227.437L759.929 229.353Z" fill="white"/>
<path d="M858.762 220.958C862.586 233.574 871.425 243.794 884.006 248.224C907.254 256.41 934.477 241.722 944.81 215.418C950.814 200.135 949.795 184.294 943.328 172.097L858.762 220.958Z" fill="white"/>
<path d="M863.096 110.788C861.531 134.7 839.649 155.827 811.618 159.3C781.448 163.037 755.579 144.908 753.838 118.808C753.363 111.68 754.736 104.694 757.599 98.2282L863.096 110.788Z" fill="white"/>
<path d="M736.84 86.6661C729.779 104.811 716.645 118.829 699.649 123.865C668.243 133.171 635.546 108.281 626.618 68.2713C621.431 45.026 625.408 21.7914 635.811 4.57665L736.84 86.6661Z" fill="white"/>
</svg>
